<svg width="51" height="44" viewBox="0 0 51 44" fill="none" xmlns="http://www.w3.org/2000/svg">
<path d="M16.1119 12.1098C16.7356 12.7762 17.4049 13.3679 18.1238 13.8622C18.8192 14.3403 20.4039 15.4266 22.8208 15.8675C23.6756 16.0178 24.4084 16.0575 24.9069 16.0613L24.9065 16.071C25.3841 16.0715 26.1474 16.0333 27.0246 15.8816C29.4556 15.4457 31.1564 14.3628 31.8966 13.8862C32.6807 13.3739 33.4009 12.8031 34.0617 12.1381C35.2877 10.9216 36.3228 9.64638 37.0822 8.17931C38.0115 6.35196 38.527 4.44948 38.7013 2.46872L38.7705 0.887281C38.7802 0.182594 38.6544 0.088288 37.8944 0.048533C36.2444 -0.027864 34.6639 0.311485 33.138 0.920428C31.4336 1.60388 29.8929 2.55379 28.6222 3.75403C28.01 4.34444 26.5103 5.80749 25.5203 8.0537C25.3845 8.32634 25.3076 8.56333 25.2398 8.73213C25.1838 8.55995 25.1096 8.32281 25.016 8.04344C24.2227 5.79538 22.8512 4.32936 22.2907 3.73775C21.1251 2.53823 19.6677 1.58197 18.0233 0.895061C16.5417 0.286256 14.992 -0.0790601 13.3344 0.01665C12.5501 0.0515612 12.437 0.148868 12.385 0.853511L12.3158 2.43495C12.3168 4.41589 12.6687 6.31927 13.435 8.14837C14.0652 9.63311 15.0098 10.9103 16.1088 12.113L16.1119 12.1098Z" fill="url(#paint0_linear_125_107)"/>
<g filter="url(#filter0_f_125_107)">
<path d="M37.6493 15.0676C35.9993 14.9912 34.4188 15.3306 32.8929 15.9395C31.1885 16.6229 29.6478 17.5729 28.3772 18.7731C27.765 19.3635 26.2652 20.8265 25.2753 23.0727C25.1394 23.3454 25.0625 23.5824 24.9947 23.7511C24.9388 23.579 24.8645 23.3418 24.771 23.0625C23.9777 20.8144 22.6061 19.3484 22.0456 18.7568C20.88 17.5573 19.4227 16.601 17.7783 15.9141C16.3059 15.3021 14.756 14.94 13.0986 15.0325C12.3141 15.0706 12.2012 15.1647 12.1492 15.8693L12.08 17.4508C12.081 19.4317 12.4329 21.3351 13.1992 23.1642C13.8294 24.6489 14.774 25.9261 15.8729 27.1288C16.4966 27.7952 17.1659 28.3869 17.8848 28.8812C18.5803 29.3593 20.1649 30.4456 22.5818 30.8865C23.4366 31.0368 24.1694 31.0765 24.6679 31.0803L24.6675 31.09C25.145 31.0905 25.9084 31.0523 26.7855 30.9006C29.2166 30.4647 30.9173 29.3818 31.6576 28.9052C32.4417 28.3929 33.1618 27.8221 33.8226 27.1571C35.0486 25.9406 36.0837 24.6654 36.8431 23.1983C37.7724 21.371 38.2879 19.4685 38.4622 17.4878L38.5315 15.9064C38.5411 15.2017 38.4153 15.1074 37.6553 15.0676L37.6493 15.0676Z" fill="url(#paint1_linear_125_107)"/>
</g>
<defs>
<filter id="filter0_f_125_107" x="9.44138e-05" y="2.93818" width="50.6116" height="40.2318" filterUnits="userSpaceOnUse" color-interpolation-filters="sRGB">
<feFlood flood-opacity="0" result="BackgroundImageFix"/>
<feBlend mode="normal" in="SourceGraphic" in2="BackgroundImageFix" result="shape"/>
<feGaussianBlur stdDeviation="6.03999" result="effect1_foregroundBlur_125_107"/>
</filter>
<linearGradient id="paint0_linear_125_107" x1="12.0711" y1="8.02681" x2="38.4016" y2="9.17908" gradientUnits="userSpaceOnUse">
<stop stop-color="#D3F804"/>
<stop offset="1" stop-color="#A2D200"/>
</linearGradient>
<linearGradient id="paint1_linear_125_107" x1="11.8352" y1="23.0458" x2="38.1656" y2="24.1981" gradientUnits="userSpaceOnUse">
<stop stop-color="#D3F804"/>
<stop offset="1" stop-color="#A2D200"/>
</linearGradient>
</defs>
</svg>
