<svg width="346" height="346" viewBox="0 0 346 346" fill="none" xmlns="http://www.w3.org/2000/svg">
<path d="M0 0L0 345.46L345.46 345.46L345.46 0L0 0Z" fill="url(#paint0_radial_123_82)"/>
<g filter="url(#filter0_f_123_82)">
<path d="M177.207 281.77C177.829 223.482 135.571 174.834 81.5685 172.444C79.4651 232.023 122.249 282.296 177.144 284.734C177.144 284.814 177.144 284.893 177.144 284.973C230.508 284.973 273.77 235.194 273.77 173.782C221.346 173.782 178.689 221.856 177.223 281.786L177.207 281.77Z" fill="#007A23"/>
</g>
<path d="M176.618 174.499C177.239 116.21 134.981 67.5464 80.9791 65.1562C78.8758 124.735 121.66 175.009 176.554 177.447C176.554 177.526 176.554 177.606 176.554 177.686C229.919 177.686 273.181 127.906 273.181 66.4947C220.741 66.4947 178.1 114.569 176.634 174.515L176.618 174.499Z" fill="#007A23"/>
<defs>
<filter id="filter0_f_123_82" x="48.6691" y="139.618" width="257.927" height="178.18" filterUnits="userSpaceOnUse" color-interpolation-filters="sRGB">
<feFlood flood-opacity="0" result="BackgroundImageFix"/>
<feBlend mode="normal" in="SourceGraphic" in2="BackgroundImageFix" result="shape"/>
<feGaussianBlur stdDeviation="16.4125" result="effect1_foregroundBlur_123_82"/>
</filter>
<radialGradient id="paint0_radial_123_82" cx="0" cy="0" r="1" gradientUnits="userSpaceOnUse" gradientTransform="translate(172.73 172.73) rotate(90) scale(172.73)">
<stop stop-color="#DEEE5A"/>
<stop offset="1" stop-color="#9ECB00"/>
</radialGradient>
</defs>
</svg>
