<svg width="156" height="157" viewBox="0 0 156 157" fill="none" xmlns="http://www.w3.org/2000/svg">
<g filter="url(#filter0_df_12_113)">
<path d="M118.558 141.953C114.281 136.459 97.9762 116.863 68.7439 110.644C42.4573 105.049 21.6079 113.658 14.854 116.781C20.3574 112.872 38.3229 99.0789 45.6034 73.3856C53.905 44.0743 42.3641 20.1889 39.619 14.8539C43.6727 20.5904 56.8554 37.6562 81.2313 45.1866C110.6 54.2665 135.044 42.9598 140.44 40.2928C136.288 43.0913 113.975 58.7448 108.448 89.0073C103.46 116.312 115.522 137.045 118.553 141.944L118.558 141.953Z" fill="#A2D200"/>
</g>
<defs>
<filter id="filter0_df_12_113" x="8.4877e-05" y="8.4877e-05" width="155.294" height="156.807" filterUnits="userSpaceOnUse" color-interpolation-filters="sRGB">
<feFlood flood-opacity="0" result="BackgroundImageFix"/>
<feColorMatrix in="SourceAlpha" type="matrix" values="0 0 0 0 0 0 0 0 0 0 0 0 0 0 0 0 0 0 127 0" result="hardAlpha"/>
<feOffset dy="4"/>
<feGaussianBlur stdDeviation="2"/>
<feComposite in2="hardAlpha" operator="out"/>
<feColorMatrix type="matrix" values="0 0 0 0 0 0 0 0 0 0 0 0 0 0 0 0 0 0 0.25 0"/>
<feBlend mode="normal" in2="BackgroundImageFix" result="effect1_dropShadow_12_113"/>
<feBlend mode="normal" in="SourceGraphic" in2="effect1_dropShadow_12_113" result="shape"/>
<feGaussianBlur stdDeviation="7.42696" result="effect2_foregroundBlur_12_113"/>
</filter>
</defs>
</svg>
